<svg xmlns="http://www.w3.org/2000/svg" xmlns:xlink="http://www.w3.org/1999/xlink" width="500" zoomAndPan="magnify" viewBox="0 0 375 374.999991" height="500" preserveAspectRatio="xMidYMid meet" version="1.0"><defs><clipPath id="90f04ec29c"><path d="M 82.105469 82.105469 L 285.589844 82.105469 L 285.589844 285.589844 L 82.105469 285.589844 Z M 82.105469 82.105469 " clip-rule="nonzero"/></clipPath><clipPath id="49c50be358"><path d="M 81.207031 81.207031 L 286.484375 81.207031 L 286.484375 286.484375 L 81.207031 286.484375 Z M 81.207031 81.207031 " clip-rule="nonzero"/></clipPath></defs><g clip-path="url(#90f04ec29c)"><path fill="#a6a6a6" d="M 252.035156 286.484375 L 115.65625 286.484375 C 96.625 286.484375 81.207031 271.0625 81.207031 252.035156 L 81.207031 115.65625 C 81.207031 96.625 96.625 81.207031 115.65625 81.207031 L 252.035156 81.207031 C 271.0625 81.207031 286.484375 96.625 286.484375 115.65625 L 286.484375 252.035156 C 286.484375 271.0625 271.0625 286.484375 252.035156 286.484375 Z M 252.035156 286.484375 " fill-opacity="1" fill-rule="nonzero"/></g><path fill="#000000" d="M 256.179688 133.304688 C 250.875 128.003906 242.226562 128.003906 236.925781 133.304688 L 164.679688 205.550781 L 131.121094 172.035156 C 125.820312 166.730469 117.171875 166.730469 111.867188 172.035156 C 106.566406 177.339844 106.566406 185.984375 111.867188 191.289062 L 154.519531 233.9375 C 154.652344 234.117188 154.832031 234.25 155.011719 234.429688 C 157.683594 237.101562 161.160156 238.441406 164.636719 238.394531 C 168.113281 238.394531 171.632812 237.058594 174.261719 234.429688 C 174.441406 234.25 174.574219 234.117188 174.753906 233.9375 L 256.179688 152.515625 C 261.527344 147.210938 261.527344 138.609375 256.179688 133.304688 Z M 256.179688 133.304688 " fill-opacity="1" fill-rule="nonzero"/><g clip-path="url(#49c50be358)"><path stroke-linecap="butt" transform="matrix(0.75, 0, 0, 0.75, 81.206536, 81.206539)" fill="none" stroke-linejoin="miter" d="M 0.000660377 0.000656777 L 0.000660377 273.7038 L 273.703803 273.7038 L 273.703803 0.000656777 L 0.000660377 0.000656777 " stroke="#000000" stroke-width="20" stroke-opacity="1" stroke-miterlimit="4"/></g></svg>