<svg xmlns="http://www.w3.org/2000/svg" xmlns:xlink="http://www.w3.org/1999/xlink" width="500" zoomAndPan="magnify" viewBox="0 0 375 374.999991" height="500" preserveAspectRatio="xMidYMid meet" version="1.0"><defs><g/><clipPath id="fcc4822986"><path d="M 105 29 L 320.503906 29 L 320.503906 232 L 105 232 Z M 105 29 " clip-rule="nonzero"/></clipPath><clipPath id="e29f58bd8f"><path d="M 54.253906 46 L 287 46 L 287 278.363281 L 54.253906 278.363281 Z M 54.253906 46 " clip-rule="nonzero"/></clipPath></defs><g clip-path="url(#fcc4822986)"><path fill="#0c0015" d="M 105.492188 146.207031 C 105.777344 142.90625 107.15625 139.984375 109.183594 137.324219 C 116.320312 127.945312 132.316406 123.648438 143.503906 130.566406 C 150.097656 134.640625 155.382812 139.886719 159.78125 146.089844 C 163.4375 151.242188 166.738281 156.648438 170.289062 162.09375 C 172.773438 158.570312 175.277344 154.953125 177.84375 151.378906 C 199.886719 120.691406 224.085938 91.882812 252.160156 66.484375 C 269.382812 50.910156 289.144531 39.335938 310.402344 30.183594 C 314.078125 28.601562 317.144531 29.21875 320.296875 32.402344 C 318.855469 33.75 317.417969 35.078125 315.992188 36.425781 C 297.421875 53.957031 279.257812 71.894531 262.765625 91.398438 C 253.328125 102.554688 244.578125 114.292969 235.574219 125.8125 C 217.445312 149.015625 203.878906 175.113281 188.46875 200.046875 C 182.519531 209.671875 176.628906 219.335938 170.671875 228.957031 C 168.304688 232.777344 165.1875 232.726562 162.8125 228.816406 C 155.109375 216.136719 149.03125 202.660156 143.289062 189.007812 C 138.492188 177.605469 133.109375 166.488281 126.269531 156.125 C 122.882812 151.003906 118.898438 146.792969 112.34375 146.230469 C 110.128906 146.046875 107.878906 146.207031 105.492188 146.207031 Z M 105.492188 146.207031 " fill-opacity="1" fill-rule="nonzero"/></g><g clip-path="url(#e29f58bd8f)"><path fill="#0c0015" d="M 272.222656 106.507812 L 254.164062 124.566406 C 259.378906 136.082031 262.273438 148.867188 262.273438 162.332031 C 262.273438 213.035156 221.171875 254.132812 170.460938 254.132812 C 119.746094 254.132812 78.644531 213.035156 78.644531 162.332031 C 78.644531 111.625 119.746094 70.53125 170.460938 70.53125 C 183.140625 70.53125 195.207031 73.101562 206.183594 77.742188 L 224.378906 59.554688 C 208.269531 51.085938 189.917969 46.292969 170.460938 46.292969 C 106.363281 46.292969 54.40625 98.246094 54.40625 162.332031 C 54.40625 226.414062 106.363281 278.363281 170.460938 278.363281 C 234.554688 278.363281 286.511719 226.410156 286.511719 162.324219 C 286.511719 142.097656 281.332031 123.066406 272.222656 106.507812 Z M 272.222656 106.507812 " fill-opacity="1" fill-rule="nonzero"/></g><g fill="#000000" fill-opacity="1"><g transform="translate(151.92703, 292.87835)"><g><path d="M 4.6875 0 C 4.40625 0 4.171875 -0.0859375 3.984375 -0.265625 C 3.804688 -0.441406 3.71875 -0.660156 3.71875 -0.921875 L 3.71875 -9.609375 L 5.671875 -9.609375 L 5.671875 -0.921875 C 5.671875 -0.660156 5.578125 -0.441406 5.390625 -0.265625 C 5.203125 -0.0859375 4.96875 0 4.6875 0 Z M 1.359375 -8.78125 C 1.097656 -8.78125 0.878906 -8.859375 0.703125 -9.015625 C 0.535156 -9.171875 0.453125 -9.378906 0.453125 -9.640625 C 0.453125 -9.898438 0.535156 -10.109375 0.703125 -10.265625 C 0.878906 -10.421875 1.097656 -10.5 1.359375 -10.5 L 8.03125 -10.5 C 8.289062 -10.5 8.503906 -10.414062 8.671875 -10.25 C 8.847656 -10.09375 8.9375 -9.882812 8.9375 -9.625 C 8.9375 -9.363281 8.847656 -9.15625 8.671875 -9 C 8.503906 -8.851562 8.289062 -8.78125 8.03125 -8.78125 Z M 1.359375 -8.78125 "/></g></g></g><g fill="#000000" fill-opacity="1"><g transform="translate(165.38202, 292.87835)"><g><path d="M 10.78125 -5.25 C 10.78125 -4.5 10.65625 -3.796875 10.40625 -3.140625 C 10.15625 -2.492188 9.800781 -1.921875 9.34375 -1.421875 C 8.894531 -0.929688 8.359375 -0.546875 7.734375 -0.265625 C 7.109375 0.015625 6.425781 0.15625 5.6875 0.15625 C 4.945312 0.15625 4.265625 0.015625 3.640625 -0.265625 C 3.023438 -0.546875 2.488281 -0.929688 2.03125 -1.421875 C 1.570312 -1.921875 1.21875 -2.492188 0.96875 -3.140625 C 0.71875 -3.796875 0.59375 -4.5 0.59375 -5.25 C 0.59375 -6 0.71875 -6.695312 0.96875 -7.34375 C 1.21875 -8 1.570312 -8.570312 2.03125 -9.0625 C 2.488281 -9.5625 3.023438 -9.953125 3.640625 -10.234375 C 4.265625 -10.515625 4.945312 -10.65625 5.6875 -10.65625 C 6.425781 -10.65625 7.109375 -10.515625 7.734375 -10.234375 C 8.359375 -9.953125 8.894531 -9.5625 9.34375 -9.0625 C 9.800781 -8.570312 10.15625 -8 10.40625 -7.34375 C 10.65625 -6.695312 10.78125 -6 10.78125 -5.25 Z M 8.828125 -5.25 C 8.828125 -5.914062 8.691406 -6.519531 8.421875 -7.0625 C 8.160156 -7.613281 7.789062 -8.046875 7.3125 -8.359375 C 6.84375 -8.679688 6.300781 -8.84375 5.6875 -8.84375 C 5.0625 -8.84375 4.515625 -8.679688 4.046875 -8.359375 C 3.578125 -8.046875 3.207031 -7.617188 2.9375 -7.078125 C 2.675781 -6.535156 2.546875 -5.925781 2.546875 -5.25 C 2.546875 -4.582031 2.675781 -3.972656 2.9375 -3.421875 C 3.207031 -2.878906 3.578125 -2.445312 4.046875 -2.125 C 4.515625 -1.8125 5.0625 -1.65625 5.6875 -1.65625 C 6.300781 -1.65625 6.84375 -1.8125 7.3125 -2.125 C 7.789062 -2.445312 8.160156 -2.878906 8.421875 -3.421875 C 8.691406 -3.972656 8.828125 -4.582031 8.828125 -5.25 Z M 8.828125 -5.25 "/></g></g></g><g fill="#000000" fill-opacity="1"><g transform="translate(180.832014, 292.87835)"><g/></g></g><g fill="#000000" fill-opacity="1"><g transform="translate(189.097008, 292.87835)"><g><path d="M 5.625 -10.5 C 6.34375 -10.5 6.984375 -10.363281 7.546875 -10.09375 C 8.109375 -9.820312 8.582031 -9.441406 8.96875 -8.953125 C 9.351562 -8.472656 9.640625 -7.914062 9.828125 -7.28125 C 10.023438 -6.644531 10.125 -5.96875 10.125 -5.25 C 10.125 -4.28125 9.945312 -3.394531 9.59375 -2.59375 C 9.25 -1.800781 8.742188 -1.171875 8.078125 -0.703125 C 7.410156 -0.234375 6.59375 0 5.625 0 L 2.046875 0 C 1.785156 0 1.566406 -0.0859375 1.390625 -0.265625 C 1.210938 -0.441406 1.125 -0.660156 1.125 -0.921875 L 1.125 -9.578125 C 1.125 -9.835938 1.210938 -10.054688 1.390625 -10.234375 C 1.566406 -10.410156 1.785156 -10.5 2.046875 -10.5 Z M 5.46875 -1.71875 C 6.101562 -1.71875 6.617188 -1.878906 7.015625 -2.203125 C 7.421875 -2.535156 7.710938 -2.96875 7.890625 -3.5 C 8.078125 -4.039062 8.171875 -4.625 8.171875 -5.25 C 8.171875 -5.71875 8.117188 -6.164062 8.015625 -6.59375 C 7.910156 -7.019531 7.75 -7.394531 7.53125 -7.71875 C 7.3125 -8.039062 7.03125 -8.296875 6.6875 -8.484375 C 6.351562 -8.679688 5.945312 -8.78125 5.46875 -8.78125 L 2.84375 -8.78125 L 3 -8.90625 L 3 -1.5625 L 2.90625 -1.71875 Z M 5.46875 -1.71875 "/></g></g></g><g fill="#000000" fill-opacity="1"><g transform="translate(203.886997, 292.87835)"><g><path d="M 10.78125 -5.25 C 10.78125 -4.5 10.65625 -3.796875 10.40625 -3.140625 C 10.15625 -2.492188 9.800781 -1.921875 9.34375 -1.421875 C 8.894531 -0.929688 8.359375 -0.546875 7.734375 -0.265625 C 7.109375 0.015625 6.425781 0.15625 5.6875 0.15625 C 4.945312 0.15625 4.265625 0.015625 3.640625 -0.265625 C 3.023438 -0.546875 2.488281 -0.929688 2.03125 -1.421875 C 1.570312 -1.921875 1.21875 -2.492188 0.96875 -3.140625 C 0.71875 -3.796875 0.59375 -4.5 0.59375 -5.25 C 0.59375 -6 0.71875 -6.695312 0.96875 -7.34375 C 1.21875 -8 1.570312 -8.570312 2.03125 -9.0625 C 2.488281 -9.5625 3.023438 -9.953125 3.640625 -10.234375 C 4.265625 -10.515625 4.945312 -10.65625 5.6875 -10.65625 C 6.425781 -10.65625 7.109375 -10.515625 7.734375 -10.234375 C 8.359375 -9.953125 8.894531 -9.5625 9.34375 -9.0625 C 9.800781 -8.570312 10.15625 -8 10.40625 -7.34375 C 10.65625 -6.695312 10.78125 -6 10.78125 -5.25 Z M 8.828125 -5.25 C 8.828125 -5.914062 8.691406 -6.519531 8.421875 -7.0625 C 8.160156 -7.613281 7.789062 -8.046875 7.3125 -8.359375 C 6.84375 -8.679688 6.300781 -8.84375 5.6875 -8.84375 C 5.0625 -8.84375 4.515625 -8.679688 4.046875 -8.359375 C 3.578125 -8.046875 3.207031 -7.617188 2.9375 -7.078125 C 2.675781 -6.535156 2.546875 -5.925781 2.546875 -5.25 C 2.546875 -4.582031 2.675781 -3.972656 2.9375 -3.421875 C 3.207031 -2.878906 3.578125 -2.445312 4.046875 -2.125 C 4.515625 -1.8125 5.0625 -1.65625 5.6875 -1.65625 C 6.300781 -1.65625 6.84375 -1.8125 7.3125 -2.125 C 7.789062 -2.445312 8.160156 -2.878906 8.421875 -3.421875 C 8.691406 -3.972656 8.828125 -4.582031 8.828125 -5.25 Z M 8.828125 -5.25 "/></g></g></g><g fill="#000000" fill-opacity="1"><g transform="translate(219.336989, 292.87835)"><g><path d="M 1.765625 -0.015625 C 1.472656 -0.015625 1.25 -0.09375 1.09375 -0.25 C 0.945312 -0.40625 0.875 -0.628906 0.875 -0.921875 L 0.875 -1.171875 C 0.875 -1.460938 0.945312 -1.679688 1.09375 -1.828125 C 1.25 -1.984375 1.472656 -2.0625 1.765625 -2.0625 L 1.96875 -2.0625 C 2.257812 -2.0625 2.476562 -1.984375 2.625 -1.828125 C 2.78125 -1.679688 2.859375 -1.460938 2.859375 -1.171875 L 2.859375 -0.921875 C 2.859375 -0.628906 2.78125 -0.40625 2.625 -0.25 C 2.476562 -0.09375 2.257812 -0.015625 1.96875 -0.015625 Z M 1.765625 -0.015625 "/></g></g></g></svg>